# Blender 4.3.0
# www.blender.org
mtllib Trash model.mtl
o Cube
v -1.461004 0.016192 2.005558
v -1.461004 2.016192 2.005558
v 1.461004 0.016192 2.005558
v 1.461004 2.016192 2.005558
v -1.461004 2.016192 -2.898491
v -1.461004 0.016192 -0.981844
v 1.461004 0.016192 -0.981844
v 1.461004 2.016192 -2.898491
v -1.461004 1.814717 2.005558
v 1.461004 1.814717 2.005558
v 1.461004 1.814717 -2.780369
v -1.461004 1.814717 -2.780369
v -1.534197 1.809670 2.127963
v -1.534197 2.021239 2.127963
v 1.534197 2.021239 -3.109296
v 1.534197 2.021239 2.127963
v -1.534197 2.021239 -3.109296
v -1.534197 1.809670 -2.897727
v 1.534197 1.809670 2.127963
v 1.534197 1.809670 -2.897727
v 0.853231 0.101072 -0.923671
v 0.853231 0.101072 1.905637
v -0.853231 0.101072 1.905637
v -0.853231 0.101072 -0.923671
v -0.087357 0.016192 2.005558
v 0.087357 0.016192 2.005558
v 0.087357 2.016192 2.005558
v -0.087357 2.016192 2.005558
v 0.087357 0.016192 -0.981844
v -0.087357 0.016192 -0.981844
v -0.087357 2.016192 -2.898491
v 0.087357 2.016192 -2.898491
v -0.087357 1.814717 -2.780369
v 0.087357 1.814717 -2.780369
v 0.087357 1.814717 2.005558
v -0.087357 1.814717 2.005558
v 0.091733 2.021239 2.127963
v -0.091733 2.021239 2.127963
v -0.091733 2.021239 -3.109296
v 0.091733 2.021239 -3.109296
v -0.091733 1.809670 -2.897727
v 0.091733 1.809670 -2.897727
v 0.091733 1.809670 2.127963
v -0.091733 1.809670 2.127963
v 0.051017 0.101072 1.905636
v -0.051017 0.101072 1.905636
v -0.051017 0.101072 -0.923671
v 0.051017 0.101072 -0.923671
v -0.087357 0.016192 2.105130
v 0.087357 0.016192 2.105130
v 0.087357 1.814717 2.105130
v -0.087357 1.814717 2.105130
v 0.091733 2.021239 2.227535
v -0.091733 2.021239 2.227535
v 0.091733 1.809670 2.227535
v -0.091733 1.809670 2.227535
v 0.091733 2.320909 2.227535
v 0.091733 2.320909 2.127963
v -0.091733 2.320909 2.127963
v -0.091733 2.320909 2.227535
v -0.091733 2.258071 2.227535
v -0.091733 2.258071 2.127963
v 0.091733 2.258071 2.227535
v 0.091733 2.258071 2.127963
v 0.109155 2.320909 2.243423
v 0.109155 2.320909 2.112076
v -0.109155 2.320909 2.112076
v -0.109155 2.320909 2.243423
v -0.109155 2.258071 2.243423
v 0.109155 2.258071 2.243423
v -0.109155 2.258071 2.112076
v 0.109155 2.258071 2.112076
v 0.060646 2.021239 2.227535
v -0.060646 2.021239 2.227535
v -0.060646 2.258071 2.227535
v 0.060646 2.258071 2.227535
v 0.060646 2.021239 2.203456
v -0.060646 2.021239 2.203456
v -0.060646 2.258071 2.203456
v 0.060646 2.258071 2.203456
v 0.081898 0.016192 1.912227
v 1.369716 0.016192 1.912227
v -0.081898 0.016192 -0.888513
v -1.369716 0.016192 -0.888513
v -1.369716 0.016192 1.912227
v 1.369716 0.016192 -0.888513
v -0.081898 0.016192 1.912227
v 0.081898 0.016192 -0.888513
v 0.081898 -0.079685 1.912227
v 1.369716 -0.079685 1.912227
v -0.081898 -0.079685 -0.888513
v -1.369716 -0.079685 -0.888513
v -1.369716 -0.079685 1.912227
v 1.369716 -0.079685 -0.888513
v -0.081898 -0.079685 1.912227
v 0.081898 -0.079685 -0.888513
v -0.081898 0.016192 2.006025
v 0.081898 0.016192 2.006025
v -0.081898 -0.079685 2.006025
v 0.081898 -0.079685 2.006025
v 1.461004 1.814717 -2.737042
v 1.534197 1.809670 -2.727945
v -1.461004 1.814717 -2.737042
v -1.534197 1.809670 -2.727945
v 1.663050 2.020780 -3.109447
v -1.663050 2.020780 -3.109447
v -1.663050 1.813771 -2.710699
v 1.663050 1.813771 -2.710699
v -1.534197 2.029375 -3.109296
v -1.534197 1.817806 -2.727945
v 1.534197 2.029375 -3.109296
v 1.534197 1.817806 -2.727945
v -1.663050 2.028916 -3.109447
v -1.663050 1.821906 -2.710699
v 1.663050 2.028916 -3.109447
v 1.663050 1.821906 -2.710699
vn -0.0000 0.9997 0.0239
vn 0.0688 0.9976 -0.0000
vn 0.0688 -0.9976 -0.0000
vn 0.9532 0.3025 -0.0000
vn -0.0688 -0.9976 -0.0000
vn -0.0000 -1.0000 -0.0000
vn -0.0000 -0.7071 -0.7071
vn -1.0000 -0.0000 -0.0000
vn -0.0000 -0.0000 1.0000
vn 1.0000 -0.0000 -0.0000
vn -0.0000 -0.9992 -0.0412
vn -0.0000 -0.9991 0.0430
vn -0.0000 0.9992 -0.0412
vn -0.0688 0.9976 -0.0000
vn -0.0000 1.0000 -0.0000
vn -0.0000 0.7179 0.6962
vn -0.0000 0.0521 -0.9986
vn -0.9532 0.3025 -0.0000
vn -0.7555 -0.6551 -0.0000
vn 0.7555 -0.6551 -0.0000
vn -0.0000 -0.0000 -1.0000
vn 0.1327 -0.0000 0.9912
vn -0.0438 0.8803 0.4724
vn 0.0438 0.8803 0.4724
vn -0.1327 -0.0000 0.9912
vn 0.0012 -0.0000 -1.0000
vn -0.0012 -0.0000 -1.0000
vn -0.0438 -0.8803 -0.4724
vn 0.0438 -0.8803 -0.4724
vt 0.401811 0.018761
vt 0.279570 0.018761
vt 0.273057 -0.000000
vt 0.401422 -0.000000
vt 0.539600 0.454727
vt 0.539600 0.018761
vt 0.546113 -0.000000
vt 0.546113 0.465589
vt 0.006513 0.029837
vt 0.006513 0.033691
vt -0.000000 0.034514
vt -0.000000 0.019412
vt 0.546113 0.436412
vt 0.546113 -0.000000
vt 0.717756 0.008892
vt 0.717756 0.260672
vt 0.266543 0.455525
vt 0.266543 0.033691
vt 0.273057 0.034514
vt 0.273057 0.466426
vt 0.006513 0.460577
vt 0.006513 0.194860
vt 0.014637 0.203161
vt 0.014637 0.452275
vt 0.128754 0.194860
vt 0.128754 0.029837
vt 0.877764 0.851801
vt 0.717757 0.851800
vt 0.717757 0.429756
vt 0.717757 0.425900
vt 0.877764 0.585951
vt 0.877764 0.160051
vt 0.877764 0.000000
vt 1.000000 0.000000
vt 1.000000 0.160051
vt 0.877764 0.265849
vt 0.717757 0.425900
vt 0.717757 0.422045
vt 0.717757 0.000000
vt 0.877764 0.000000
vt 0.896586 0.767339
vt 0.877764 0.786166
vt 0.896586 0.752230
vt 0.202084 0.597793
vt 0.183257 0.597793
vt 0.183257 0.469433
vt 0.202084 0.469433
vt 0.915409 0.786166
vt 0.896586 0.786166
vt 0.896586 0.320102
vt 0.915409 0.354038
vt 0.128365 0.019412
vt 0.000000 0.000000
vt 0.128365 0.000000
vt 0.144302 0.455525
vt 0.144692 0.466426
vt 0.417359 0.454727
vt 0.417748 0.465589
vt 0.279570 0.454727
vt 0.273057 0.465589
vt 0.080469 0.729463
vt 0.151858 0.729463
vt 0.151858 0.980987
vt 0.080469 0.980987
vt -0.000000 0.591674
vt 0.000000 0.469433
vt 0.183257 0.510323
vt 0.183257 0.594119
vt 0.273057 0.845276
vt 0.273057 0.723046
vt 0.443602 0.777043
vt 0.443602 0.848426
vt 0.546113 0.872824
vt 0.546113 0.436412
vt 0.717757 0.612152
vt 0.717757 0.863932
vt 0.273057 0.983052
vt 0.273057 0.860822
vt 0.443602 0.857505
vt 0.443602 0.928888
vt -0.000000 0.729463
vt -0.000000 0.607222
vt 0.183257 0.604777
vt 0.183257 0.688574
vt 0.000000 0.729463
vt 0.071389 0.729463
vt 0.071389 0.980987
vt 0.000000 0.980987
vt 0.401811 0.454727
vt 0.401422 0.465589
vt 0.266543 0.029837
vt 0.144302 0.029837
vt 0.144692 0.019412
vt 0.273057 0.019413
vt 0.006513 0.455525
vt 0.128754 0.455525
vt 0.128365 0.466426
vt -0.000000 0.466426
vt 0.237973 0.629441
vt 0.237973 0.469433
vt 0.246834 0.469433
vt 0.246834 0.629441
vt 0.144692 0.000000
vt 0.273057 0.000000
vt 0.220912 0.597793
vt 0.202084 0.597793
vt 0.202084 0.469433
vt 0.220912 0.469433
vt 0.545958 0.465589
vt 0.545958 0.476491
vt 0.545600 0.485344
vt 0.545600 0.474443
vt 0.877764 0.320102
vt 0.877764 0.160051
vt 1.000000 0.160051
vt 1.000000 0.320102
vt 0.204988 0.670546
vt 0.204988 0.654220
vt 0.206400 0.652669
vt 0.206400 0.672097
vt 0.266543 0.194860
vt 0.144302 0.194860
vt 0.144302 0.460577
vt 0.128754 0.460577
vt 0.129240 0.452275
vt 0.143817 0.452275
vt 0.143816 0.203161
vt 0.129240 0.203161
vt 0.417359 0.018761
vt 0.417748 -0.000000
vt 0.206400 0.668606
vt 0.206400 0.653059
vt 0.217302 0.652669
vt 0.217302 0.668996
vt 0.194723 0.652669
vt 0.194723 0.633842
vt 0.211049 0.633842
vt 0.211049 0.652669
vt 0.516839 0.625640
vt 0.516839 0.465589
vt 0.532386 0.465589
vt 0.532386 0.625640
vt 0.255695 0.660205
vt 0.255695 0.641382
vt 0.264556 0.641382
vt 0.264556 0.660205
vt 0.144302 0.469433
vt 0.128754 0.469433
vt 0.545600 0.496246
vt 0.545600 0.485344
vt 0.545958 0.494198
vt 0.545958 0.505100
vt 0.255695 0.469433
vt 0.255695 0.629441
vt 0.246834 0.629441
vt 0.246834 0.469433
vt 0.525700 0.646710
vt 0.525700 0.665532
vt 0.516839 0.665532
vt 0.516839 0.646710
vt 0.196136 0.670546
vt 0.196136 0.654220
vt 0.248242 0.652068
vt 0.239386 0.652068
vt 0.237973 0.650517
vt 0.249656 0.650517
vt 0.194723 0.672097
vt 0.194723 0.652669
vt 0.248242 0.668394
vt 0.249656 0.669945
vt 0.255695 0.620312
vt 0.264556 0.620312
vt 0.254298 0.650514
vt 0.237973 0.650517
vt 0.237973 0.629444
vt 0.254298 0.629441
vt 0.202084 0.469433
vt 0.516839 0.625640
vt 0.525700 0.625640
vt 0.272752 0.603458
vt 0.272752 0.615147
vt 0.267161 0.615147
vt 0.267161 0.603458
vt 0.272753 0.584032
vt 0.272753 0.603458
vt 0.267161 0.584032
vt 0.531291 0.625641
vt 0.531291 0.645067
vt 0.525700 0.645065
vt 0.525700 0.625640
vt 0.531290 0.645067
vt 0.531290 0.656755
vt 0.525700 0.656755
vt 0.525700 0.645067
vt 0.239386 0.668394
vt 0.237973 0.669945
vt 0.543058 0.528810
vt 0.543058 0.539604
vt 0.540916 0.539604
vt 0.540916 0.528810
vt 0.540916 0.486665
vt 0.540916 0.465589
vt 0.543682 0.465589
vt 0.543682 0.486665
vt 0.543682 0.486665
vt 0.543682 0.507740
vt 0.540916 0.507740
vt 0.540916 0.486665
vt 0.194050 0.655149
vt 0.183257 0.655149
vt 0.183257 0.634074
vt 0.194050 0.634074
vt 0.543059 0.507740
vt 0.543059 0.528810
vt 0.545202 0.507740
vt 0.545202 0.528810
vt 0.545198 0.528810
vt 0.545198 0.539604
vt 0.532386 0.714827
vt 0.532386 0.465589
vt 0.540916 0.714827
vt 0.255695 0.584032
vt 0.255695 0.469433
vt 0.264227 0.469433
vt 0.264227 0.584032
vt 0.229442 0.584026
vt 0.229442 0.469433
vt 0.237973 0.469435
vt 0.237973 0.584028
vt 0.258420 0.203161
vt 0.266543 0.460577
vt 0.258420 0.452275
vt 0.402236 0.465589
vt 0.516839 0.714703
vt 0.402236 0.714703
vt 0.273057 0.465589
vt 0.387660 0.465589
vt 0.387660 0.714703
vt 0.273057 0.714703
vt 0.264227 0.469433
vt 0.272759 0.469433
vt 0.272759 0.584032
vt 0.229442 0.598601
vt 0.237973 0.598603
vt 0.402236 0.723046
vt 0.387660 0.723046
vt 0.220912 0.718672
vt 0.220912 0.469433
vt 0.229442 0.718672
vt 0.229442 0.713194
vt 0.237973 0.713196
vt 0.211049 0.648417
vt 0.211049 0.633842
vt 0.219582 0.633842
vt 0.219582 0.648417
vt 0.264556 0.667649
vt 0.264556 0.659119
vt 0.272903 0.659119
vt 0.272903 0.667649
vt 0.191595 0.655149
vt 0.191595 0.669726
vt 0.183257 0.669726
vt 0.183257 0.655149
vt 0.264042 0.660205
vt 0.264042 0.668734
vt 0.255695 0.668734
vt 0.255695 0.660205
vt 0.264555 0.659119
vt 0.264555 0.620312
vt 0.271884 0.645906
vt 0.877764 0.320102
vt 0.896586 0.320102
vt 0.545835 0.508091
vt 0.545835 0.546898
vt 0.545202 0.546547
vt 0.545202 0.507740
vt 0.540916 0.551121
vt 0.541640 0.551097
vt 0.541640 0.539604
vt 0.540916 0.539628
vt 0.194723 0.597805
vt 0.194723 0.632557
vt 0.183257 0.597793
vt 0.206190 0.597805
vt 0.194723 0.597793
vt 0.194723 0.633842
vt 0.206190 0.632319
vt 0.541640 0.551113
vt 0.541640 0.539627
vt 0.542363 0.539604
vt 0.542363 0.551090
vt 0.543682 0.505902
vt 0.543682 0.465922
vt 0.544325 0.465589
vt 0.544325 0.505568
vt 0.545600 0.465940
vt 0.545600 0.504747
vt 0.544967 0.504396
vt 0.544967 0.465589
vt 0.544474 0.551073
vt 0.545198 0.551070
vt 0.545198 0.539604
vt 0.544474 0.539607
vt 0.542363 0.551072
vt 0.542363 0.539606
vt 0.543087 0.539604
vt 0.543087 0.551070
vt 0.544325 0.505901
vt 0.544967 0.505568
vt 0.544325 0.465922
vt 0.255695 0.584043
vt 0.255695 0.618796
vt 0.267161 0.620312
vt 0.267161 0.584032
vt 0.206190 0.597805
vt 0.217657 0.597793
vt 0.217657 0.633842
vt 0.206190 0.632319
s 0
g Cube_cont
usemtl cont
f 32/1/1 8/2/1 15/3/1 40/4/1
f 2/5/2 5/6/2 17/7/2 14/8/2
f 12/9/3 103/10/3 104/11/3 18/12/3
f 5/13/4 2/14/4 23/15/4 24/16/4
f 10/17/5 101/18/5 102/19/5 19/20/5
f 1/21/6 6/22/6 84/23/6 85/24/6
f 30/25/7 6/22/7 12/9/7 33/26/7
f 1/27/8 9/28/8 103/29/8 12/30/8 6/31/8
f 25/32/9 36/33/9 9/34/9 1/35/9
f 7/36/10 11/37/10 101/38/10 10/39/10 3/40/10
f 20/41/10 15/42/10 102/43/10
f 44/44/9 38/45/9 14/46/9 13/47/9
f 13/48/8 14/49/8 17/50/8 104/51/8
f 41/52/7 18/12/7 17/53/7 39/54/7
f 35/55/11 10/17/11 19/20/11 43/56/11
f 33/26/12 12/9/12 18/12/12 41/52/12
f 28/57/13 2/5/13 14/8/13 38/58/13
f 8/2/14 4/59/14 16/60/14 15/3/14
f 47/61/15 24/62/15 23/63/15 46/64/15
f 31/65/16 5/66/16 24/67/16 47/68/16
f 27/69/17 4/70/17 22/71/17 45/72/17
f 4/73/18 8/74/18 21/75/18 22/76/18
f 2/77/17 28/78/17 46/79/17 23/80/17
f 28/78/17 27/69/17 45/72/17 46/79/17
f 8/81/16 32/82/16 48/83/16 21/84/16
f 32/82/16 31/65/16 47/68/16 48/83/16
f 21/85/15 48/86/15 45/87/15 22/88/15
f 48/86/15 47/61/15 46/64/15 45/87/15
f 4/59/13 27/89/13 37/90/13 16/60/13
f 27/89/13 28/57/13 38/58/13 37/90/13
f 11/91/12 34/92/12 42/93/12 20/94/12
f 34/92/12 33/26/12 41/52/12 42/93/12
f 9/95/11 36/96/11 44/97/11 13/98/11
f 26/99/10 35/100/10 51/101/10 50/102/10
f 20/94/7 42/93/7 40/103/7 15/104/7
f 42/93/7 41/52/7 39/54/7 40/103/7
f 19/105/9 16/106/9 37/107/9 43/108/9
f 35/109/19 43/110/19 55/111/19 51/112/19
f 3/113/9 10/114/9 35/115/9 26/116/9
f 59/117/15 58/118/15 66/119/15 67/120/15
f 7/121/7 29/122/7 34/92/7 11/91/7
f 29/122/7 30/25/7 33/26/7 34/92/7
f 26/123/6 25/124/6 87/125/6 81/126/6
f 30/25/6 29/122/6 88/127/6 83/128/6
f 5/6/1 31/129/1 39/130/1 17/7/1
f 31/129/1 32/1/1 40/4/1 39/130/1
f 52/131/11 51/132/11 55/133/11 56/134/11
f 55/135/9 53/136/9 54/137/9 56/138/9
f 50/139/9 51/140/9 52/141/9 49/142/9
f 43/143/10 37/144/10 53/145/10 55/146/10
f 25/124/6 26/123/6 50/147/6 49/148/6
f 44/149/20 36/150/20 52/151/20 56/152/20
f 36/153/8 25/154/8 49/155/8 52/156/8
f 38/157/8 44/158/8 56/159/8 54/160/8
f 58/118/15 59/117/15 60/161/15 57/162/15
f 63/163/6 64/164/6 72/165/6 70/166/6
f 57/162/15 60/161/15 68/167/15 65/168/15
f 61/169/6 63/163/6 70/166/6 69/170/6
f 53/145/10 37/144/10 64/171/10 63/172/10
f 37/173/21 38/174/21 62/175/21 64/176/21
f 63/177/15 61/177/15 75/177/15 76/177/15
f 38/157/8 54/160/8 61/178/8 62/179/8
f 71/180/8 69/181/8 68/182/8 67/183/8
f 69/184/9 70/185/9 65/183/9 68/186/9
f 72/187/21 71/188/21 67/189/21 66/190/21
f 70/191/10 72/192/10 66/193/10 65/194/10
f 62/195/6 61/169/6 69/170/6 71/196/6
f 64/164/6 62/195/6 71/196/6 72/165/6
f 60/161/15 59/117/15 67/120/15 68/167/15
f 58/118/15 57/162/15 65/168/15 66/119/15
f 76/197/6 75/198/6 79/199/6 80/200/6
f 53/201/9 63/202/9 76/203/9 73/204/9
f 54/177/15 53/177/15 73/177/15 74/177/15
f 61/205/9 54/206/9 74/207/9 75/208/9
f 78/209/9 77/210/9 80/211/9 79/212/9
f 75/213/10 74/214/10 78/200/10 79/207/10
f 73/214/8 76/213/8 80/215/8 77/216/8
f 74/198/15 73/197/15 77/217/15 78/218/15
f 85/219/8 84/220/8 92/202/8 93/221/8
f 87/222/9 85/223/9 93/224/9 95/225/9
f 88/226/21 86/227/21 94/228/21 96/229/21
f 29/122/6 7/121/6 86/230/6 88/127/6
f 3/231/6 26/123/6 81/126/6 82/232/6
f 25/124/6 1/21/6 85/24/6 87/125/6
f 7/121/6 3/231/6 82/232/6 86/230/6
f 6/22/6 30/25/6 83/128/6 84/23/6
f 96/233/6 94/140/6 90/234/6 89/235/6
f 92/236/6 91/237/6 95/238/6 93/239/6
f 91/237/6 96/233/6 89/235/6 95/238/6
f 82/225/9 81/240/9 89/241/9 90/242/9
f 83/243/21 88/226/21 96/229/21 91/244/21
f 95/238/6 89/235/6 100/245/6 99/246/6
f 86/247/10 82/248/10 90/227/10 94/249/10
f 84/250/21 83/243/21 91/244/21 92/251/21
f 98/252/9 97/253/9 99/254/9 100/255/9
f 89/256/10 81/257/10 98/258/10 100/259/10
f 81/260/15 87/261/15 97/262/15 98/263/15
f 87/264/8 95/265/8 99/266/8 97/267/8
f 104/11/3 103/10/3 9/95/3 13/98/3
f 104/268/8 17/269/8 18/270/8
f 102/43/10 15/42/10 16/271/10 19/272/10
f 102/19/5 101/18/5 11/91/5 20/94/5
f 17/273/8 104/274/8 110/275/8 109/276/8
f 104/277/22 110/278/22 114/279/22 107/280/22
f 111/281/23 112/282/23 116/211/23 115/283/23
f 109/284/24 113/285/24 114/286/24 110/287/24
f 102/288/25 108/289/25 116/290/25 112/291/25
f 108/292/10 105/293/10 115/294/10 116/295/10
f 15/296/8 102/297/8 112/298/8 111/299/8
f 106/300/26 113/301/26 109/302/26 17/303/26
f 105/304/27 15/305/27 111/306/27 115/307/27
f 107/308/8 114/309/8 113/299/8 106/310/8
f 17/311/28 104/312/28 107/313/28 106/314/28
f 15/315/29 105/316/29 108/317/29 102/318/29
